<svg xmlns="http://www.w3.org/2000/svg" width="16" height="16" viewBox="0 0 16 16" fill="none">
    <path d="M7.99967 8.66699C8.36786 8.66699 8.66634 8.36851 8.66634 8.00033C8.66634 7.63214 8.36786 7.33366 7.99967 7.33366C7.63148 7.33366 7.33301 7.63214 7.33301 8.00033C7.33301 8.36851 7.63148 8.66699 7.99967 8.66699Z" stroke="black" stroke-linecap="round" stroke-linejoin="round"/>
    <path d="M7.99967 4.00033C8.36786 4.00033 8.66634 3.70185 8.66634 3.33366C8.66634 2.96547 8.36786 2.66699 7.99967 2.66699C7.63148 2.66699 7.33301 2.96547 7.33301 3.33366C7.33301 3.70185 7.63148 4.00033 7.99967 4.00033Z" stroke="black" stroke-linecap="round" stroke-linejoin="round"/>
    <path d="M7.99967 13.3337C8.36786 13.3337 8.66634 13.0352 8.66634 12.667C8.66634 12.2988 8.36786 12.0003 7.99967 12.0003C7.63148 12.0003 7.33301 12.2988 7.33301 12.667C7.33301 13.0352 7.63148 13.3337 7.99967 13.3337Z" stroke="black" stroke-linecap="round" stroke-linejoin="round"/>
</svg>