<svg width="158" height="158" viewBox="0 0 158 158" fill="none" xmlns="http://www.w3.org/2000/svg">
<rect width="158" height="158" rx="10" fill="#E0E7FF"/>
<g clip-path="url(#clip0_1_11)">
<path d="M74.7575 64.9C75.5377 64.1198 76.318 63.3395 77.0982 62.5593C77.3908 63.1444 77.3908 63.5346 77.3908 63.9247C77.3908 67.0457 77.3908 70.2642 77.3908 73.3852C77.3908 74.6531 77.976 75.4333 78.9513 75.4333C79.9266 75.4333 80.6094 74.6531 80.6094 73.3852C80.6094 70.3617 80.6094 67.2407 80.6094 64.2173C80.6094 63.7296 80.6094 63.1444 80.6094 62.6568C80.8044 62.5593 80.9019 62.4617 81.097 62.4617C81.8773 63.242 82.56 64.1198 83.3402 64.9C84.218 65.7778 85.1933 65.9728 85.876 65.2901C86.5587 64.6074 86.4612 63.7296 85.5834 62.7543C83.9254 61.0963 82.1698 59.3407 80.4143 57.6827C79.439 56.8049 78.6587 56.8049 77.781 57.6827C75.9279 59.3407 74.2698 60.9988 72.6118 62.6568C71.6365 63.6321 71.539 64.5099 72.2217 65.1926C73.0019 65.9728 73.8797 65.7778 74.7575 64.9Z" fill="#5673D6"/>
<path d="M91.8254 75.8235C91.8254 74.7506 91.1427 74.0679 90.2649 74.0679C89.3871 74.0679 88.7044 74.7506 88.8019 75.8235C88.8995 77.0914 88.3143 77.2864 87.2415 77.2864C81.8773 77.2864 76.5131 77.2864 71.1489 77.2864C69.4908 77.2864 69.4908 77.2864 69.1982 75.5309C69.1007 74.6531 68.6131 74.0679 67.7353 74.0679C66.76 74.0679 66.2723 74.6531 66.1748 75.5309C66.0773 76.2136 66.1748 76.7988 66.1748 77.4815C66.1748 79.6272 66.955 80.4074 69.0032 80.4074C72.3192 80.4074 75.6353 80.4074 78.9513 80.4074C81.7797 80.4074 84.7056 80.3099 87.534 80.4074C92.118 80.6025 91.8254 79.042 91.8254 75.8235Z" fill="#5673D6"/>
</g>
<path d="M38.02 101H36.724V93.548H34.156V92.432H40.588V93.548H38.02V101ZM43.3048 94.412C44.1208 94.412 44.7288 94.592 45.1288 94.952C45.5288 95.304 45.7288 95.86 45.7288 96.62V101H44.8288L44.5768 100.1H44.5288C44.3448 100.332 44.1528 100.524 43.9528 100.676C43.7608 100.828 43.5368 100.94 43.2808 101.012C43.0328 101.084 42.7288 101.12 42.3688 101.12C41.9848 101.12 41.6368 101.052 41.3248 100.916C41.0208 100.772 40.7808 100.556 40.6048 100.268C40.4288 99.972 40.3408 99.604 40.3408 99.164C40.3408 98.508 40.5888 98.008 41.0848 97.664C41.5888 97.32 42.3528 97.132 43.3768 97.1L44.4808 97.064V96.704C44.4808 96.224 44.3728 95.888 44.1568 95.696C43.9408 95.504 43.6368 95.408 43.2448 95.408C42.9088 95.408 42.5888 95.456 42.2848 95.552C41.9808 95.648 41.6928 95.764 41.4208 95.9L41.0128 94.976C41.3168 94.816 41.6648 94.684 42.0568 94.58C42.4568 94.468 42.8728 94.412 43.3048 94.412ZM43.6048 97.916C42.8688 97.948 42.3568 98.072 42.0688 98.288C41.7888 98.496 41.6488 98.792 41.6488 99.176C41.6488 99.512 41.7488 99.756 41.9488 99.908C42.1568 100.06 42.4168 100.136 42.7288 100.136C43.2328 100.136 43.6488 99.996 43.9768 99.716C44.3048 99.436 44.4688 99.016 44.4688 98.456V97.892L43.6048 97.916ZM44.5288 92.252C44.5288 92.556 44.4408 92.796 44.2648 92.972C44.0888 93.14 43.8528 93.26 43.5568 93.332L43.4968 93.908H42.7408L42.6448 92.924C42.9328 92.876 43.1528 92.808 43.3048 92.72C43.4568 92.624 43.5328 92.488 43.5328 92.312C43.5328 92.144 43.4688 92.028 43.3408 91.964C43.2128 91.9 43.0528 91.868 42.8608 91.868C42.7408 91.868 42.6208 91.876 42.5008 91.892C42.3888 91.9 42.2928 91.916 42.2128 91.94V91.208C42.2928 91.176 42.3968 91.152 42.5248 91.136C42.6608 91.12 42.8128 91.112 42.9808 91.112C43.4768 91.112 43.8568 91.208 44.1208 91.4C44.3928 91.584 44.5288 91.868 44.5288 92.252ZM48.9594 94.532V101H47.6874V94.532H48.9594ZM48.3354 92.072C48.5274 92.072 48.6954 92.128 48.8394 92.24C48.9834 92.352 49.0554 92.54 49.0554 92.804C49.0554 93.06 48.9834 93.248 48.8394 93.368C48.6954 93.48 48.5274 93.536 48.3354 93.536C48.1274 93.536 47.9514 93.48 47.8074 93.368C47.6714 93.248 47.6034 93.06 47.6034 92.804C47.6034 92.54 47.6714 92.352 47.8074 92.24C47.9514 92.128 48.1274 92.072 48.3354 92.072ZM56.5821 94.412C57.3981 94.412 58.0061 94.592 58.4061 94.952C58.8061 95.304 59.0061 95.86 59.0061 96.62V101H58.1061L57.8541 100.1H57.8061C57.6221 100.332 57.4301 100.524 57.2301 100.676C57.0381 100.828 56.8141 100.94 56.5581 101.012C56.3101 101.084 56.0061 101.12 55.6461 101.12C55.2621 101.12 54.9141 101.052 54.6021 100.916C54.2981 100.772 54.0581 100.556 53.8821 100.268C53.7061 99.972 53.6181 99.604 53.6181 99.164C53.6181 98.508 53.8661 98.008 54.3621 97.664C54.8661 97.32 55.6301 97.132 56.6541 97.1L57.7581 97.064V96.704C57.7581 96.224 57.6501 95.888 57.4341 95.696C57.2181 95.504 56.9141 95.408 56.5221 95.408C56.1861 95.408 55.8661 95.456 55.5621 95.552C55.2581 95.648 54.9701 95.764 54.6981 95.9L54.2901 94.976C54.5941 94.816 54.9421 94.684 55.3341 94.58C55.7341 94.468 56.1501 94.412 56.5821 94.412ZM56.8821 97.916C56.1461 97.948 55.6341 98.072 55.3461 98.288C55.0661 98.496 54.9261 98.792 54.9261 99.176C54.9261 99.512 55.0261 99.756 55.2261 99.908C55.4341 100.06 55.6941 100.136 56.0061 100.136C56.5101 100.136 56.9261 99.996 57.2541 99.716C57.5821 99.436 57.7461 99.016 57.7461 98.456V97.892L56.8821 97.916ZM57.8061 92.252C57.8061 92.556 57.7181 92.796 57.5421 92.972C57.3661 93.14 57.1301 93.26 56.8341 93.332L56.7741 93.908H56.0181L55.9221 92.924C56.2101 92.876 56.4301 92.808 56.5821 92.72C56.7341 92.624 56.8101 92.488 56.8101 92.312C56.8101 92.144 56.7461 92.028 56.6181 91.964C56.4901 91.9 56.3301 91.868 56.1381 91.868C56.0181 91.868 55.8981 91.876 55.7781 91.892C55.6661 91.9 55.5701 91.916 55.4901 91.94V91.208C55.5701 91.176 55.6741 91.152 55.8021 91.136C55.9381 91.12 56.0901 91.112 56.2581 91.112C56.7541 91.112 57.1341 91.208 57.3981 91.4C57.6701 91.584 57.8061 91.868 57.8061 92.252ZM64.2408 94.412C64.9928 94.412 65.5688 94.6 65.9688 94.976C66.3688 95.352 66.5688 95.956 66.5688 96.788V101H65.3088V96.968C65.3088 96.464 65.2008 96.088 64.9848 95.84C64.7768 95.584 64.4408 95.456 63.9768 95.456C63.3208 95.456 62.8648 95.652 62.6088 96.044C62.3608 96.436 62.2368 97 62.2368 97.736V101H60.9648V94.532H61.9728L62.1528 95.396H62.2248C62.3688 95.172 62.5448 94.988 62.7528 94.844C62.9608 94.7 63.1928 94.592 63.4488 94.52C63.7048 94.448 63.9688 94.412 64.2408 94.412ZM69.7953 94.316C69.7953 94.516 69.7873 94.716 69.7713 94.916C69.7553 95.116 69.7393 95.28 69.7233 95.408H69.8073C69.9433 95.184 70.1113 95 70.3113 94.856C70.5193 94.712 70.7473 94.604 70.9953 94.532C71.2513 94.46 71.5113 94.424 71.7753 94.424C72.2873 94.424 72.7153 94.508 73.0593 94.676C73.4113 94.836 73.6753 95.092 73.8513 95.444C74.0353 95.788 74.1273 96.236 74.1273 96.788V101H72.8673V96.968C72.8673 96.464 72.7593 96.088 72.5433 95.84C72.3353 95.584 71.9993 95.456 71.5353 95.456C71.0953 95.456 70.7473 95.544 70.4913 95.72C70.2433 95.896 70.0633 96.156 69.9513 96.5C69.8473 96.836 69.7953 97.252 69.7953 97.748V101H68.5233V91.88H69.7953V94.316ZM79.5979 92.432L76.4059 101H75.1939L78.3859 92.432H79.5979ZM85.2566 101L82.8086 94.532H84.1526L85.4966 98.312C85.5526 98.472 85.6086 98.652 85.6646 98.852C85.7286 99.052 85.7846 99.244 85.8326 99.428C85.8806 99.612 85.9126 99.772 85.9286 99.908H85.9766C86.0006 99.772 86.0366 99.612 86.0846 99.428C86.1406 99.236 86.2006 99.044 86.2646 98.852C86.3286 98.652 86.3846 98.472 86.4326 98.312L87.7766 94.532H89.1206L86.6606 101H85.2566ZM91.393 94.532V101H90.121V94.532H91.393ZM90.769 92.072C90.961 92.072 91.129 92.128 91.273 92.24C91.417 92.352 91.489 92.54 91.489 92.804C91.489 93.06 91.417 93.248 91.273 93.368C91.129 93.48 90.961 93.536 90.769 93.536C90.561 93.536 90.385 93.48 90.241 93.368C90.105 93.248 90.037 93.06 90.037 92.804C90.037 92.54 90.105 92.352 90.241 92.24C90.385 92.128 90.561 92.072 90.769 92.072ZM95.6105 101.12C94.8345 101.12 94.2065 100.84 93.7265 100.28C93.2545 99.72 93.0185 98.888 93.0185 97.784C93.0185 96.672 93.2585 95.832 93.7385 95.264C94.2185 94.696 94.8505 94.412 95.6345 94.412C95.9625 94.412 96.2465 94.456 96.4865 94.544C96.7345 94.624 96.9465 94.736 97.1225 94.88C97.3065 95.024 97.4625 95.184 97.5905 95.36H97.6625C97.6465 95.248 97.6265 95.088 97.6025 94.88C97.5785 94.664 97.5665 94.472 97.5665 94.304V91.88H98.8385V101H97.8425L97.6265 100.136H97.5665C97.4465 100.32 97.2945 100.488 97.1105 100.64C96.9345 100.784 96.7225 100.9 96.4745 100.988C96.2265 101.076 95.9385 101.12 95.6105 101.12ZM95.9105 100.076C96.5345 100.076 96.9745 99.904 97.2305 99.56C97.4865 99.208 97.6145 98.684 97.6145 97.988V97.796C97.6145 97.036 97.4905 96.456 97.2425 96.056C97.0025 95.656 96.5545 95.456 95.8985 95.456C95.3785 95.456 94.9865 95.668 94.7225 96.092C94.4585 96.508 94.3265 97.08 94.3265 97.808C94.3265 98.536 94.4585 99.096 94.7225 99.488C94.9865 99.88 95.3825 100.076 95.9105 100.076ZM103.376 94.412C103.944 94.412 104.432 94.532 104.84 94.772C105.248 95.004 105.56 95.34 105.776 95.78C106 96.22 106.112 96.74 106.112 97.34V98.036H101.768C101.784 98.7 101.956 99.208 102.284 99.56C102.62 99.912 103.088 100.088 103.688 100.088C104.104 100.088 104.472 100.052 104.792 99.98C105.12 99.9 105.456 99.784 105.8 99.632V100.688C105.48 100.832 105.152 100.94 104.816 101.012C104.488 101.084 104.096 101.12 103.64 101.12C103.016 101.12 102.464 100.996 101.984 100.748C101.504 100.5 101.128 100.132 100.856 99.644C100.592 99.148 100.46 98.54 100.46 97.82C100.46 97.092 100.58 96.476 100.82 95.972C101.068 95.468 101.408 95.084 101.84 94.82C102.28 94.548 102.792 94.412 103.376 94.412ZM103.376 95.396C102.92 95.396 102.552 95.544 102.272 95.84C102 96.136 101.84 96.556 101.792 97.1H104.84C104.84 96.764 104.788 96.468 104.684 96.212C104.58 95.956 104.42 95.756 104.204 95.612C103.988 95.468 103.712 95.396 103.376 95.396ZM113.399 97.76C113.399 98.296 113.327 98.772 113.183 99.188C113.039 99.604 112.835 99.956 112.571 100.244C112.307 100.532 111.987 100.752 111.611 100.904C111.235 101.048 110.811 101.12 110.339 101.12C109.907 101.12 109.507 101.048 109.139 100.904C108.771 100.752 108.451 100.532 108.179 100.244C107.915 99.956 107.707 99.604 107.555 99.188C107.403 98.772 107.327 98.292 107.327 97.748C107.327 97.036 107.447 96.432 107.687 95.936C107.935 95.44 108.287 95.064 108.743 94.808C109.207 94.544 109.751 94.412 110.375 94.412C110.967 94.412 111.487 94.544 111.935 94.808C112.391 95.064 112.747 95.44 113.003 95.936C113.267 96.432 113.399 97.04 113.399 97.76ZM108.635 97.76C108.635 98.24 108.695 98.656 108.815 99.008C108.935 99.352 109.123 99.616 109.379 99.8C109.635 99.984 109.963 100.076 110.363 100.076C110.763 100.076 111.091 99.984 111.347 99.8C111.603 99.616 111.791 99.352 111.911 99.008C112.031 98.656 112.091 98.24 112.091 97.76C112.091 97.264 112.027 96.848 111.899 96.512C111.779 96.176 111.591 95.92 111.335 95.744C111.087 95.56 110.759 95.468 110.351 95.468C109.751 95.468 109.315 95.668 109.043 96.068C108.771 96.468 108.635 97.032 108.635 97.76ZM119.401 101H118.129V91.88H119.401V101ZM123.942 94.412C124.51 94.412 124.998 94.532 125.406 94.772C125.814 95.004 126.126 95.34 126.342 95.78C126.566 96.22 126.678 96.74 126.678 97.34V98.036H122.334C122.35 98.7 122.522 99.208 122.85 99.56C123.186 99.912 123.654 100.088 124.254 100.088C124.67 100.088 125.038 100.052 125.358 99.98C125.686 99.9 126.022 99.784 126.366 99.632V100.688C126.046 100.832 125.718 100.94 125.382 101.012C125.054 101.084 124.662 101.12 124.206 101.12C123.582 101.12 123.03 100.996 122.55 100.748C122.07 100.5 121.694 100.132 121.422 99.644C121.158 99.148 121.026 98.54 121.026 97.82C121.026 97.092 121.146 96.476 121.386 95.972C121.634 95.468 121.974 95.084 122.406 94.82C122.846 94.548 123.358 94.412 123.942 94.412ZM123.942 95.396C123.486 95.396 123.118 95.544 122.838 95.84C122.566 96.136 122.406 96.556 122.358 97.1H125.406C125.406 96.764 125.354 96.468 125.25 96.212C125.146 95.956 124.986 95.756 124.77 95.612C124.554 95.468 124.278 95.396 123.942 95.396ZM124.542 91.808C124.646 91.984 124.786 92.184 124.962 92.408C125.146 92.624 125.334 92.84 125.526 93.056C125.726 93.264 125.898 93.44 126.042 93.584V93.728H125.166C124.958 93.6 124.738 93.444 124.506 93.26C124.282 93.076 124.062 92.876 123.846 92.66C123.63 92.876 123.41 93.076 123.186 93.26C122.97 93.436 122.758 93.592 122.55 93.728H121.686V93.584C121.838 93.432 122.006 93.252 122.19 93.044C122.382 92.836 122.566 92.624 122.742 92.408C122.918 92.184 123.062 91.984 123.174 91.808H124.542ZM131.542 94.412C132.294 94.412 132.87 94.6 133.27 94.976C133.67 95.352 133.87 95.956 133.87 96.788V101H132.61V96.968C132.61 96.464 132.502 96.088 132.286 95.84C132.078 95.584 131.742 95.456 131.278 95.456C130.622 95.456 130.166 95.652 129.91 96.044C129.662 96.436 129.538 97 129.538 97.736V101H128.266V94.532H129.274L129.454 95.396H129.526C129.67 95.172 129.846 94.988 130.054 94.844C130.262 94.7 130.494 94.592 130.75 94.52C131.006 94.448 131.27 94.412 131.542 94.412Z" fill="#5673D6"/>
<defs>
<clipPath id="clip0_1_11">
<rect x="66.1748" y="57" width="25.6506" height="23.4074" fill="white"/>
</clipPath>
</defs>
</svg>
