<svg width="158" height="158" viewBox="0 0 158 158" fill="none" xmlns="http://www.w3.org/2000/svg">
<rect width="158" height="158" rx="10" fill="#E0E7FF"/>
<g clip-path="url(#clip0_1_11)">
<path d="M74.7575 64.9C75.5377 64.1198 76.318 63.3395 77.0982 62.5593C77.3908 63.1444 77.3908 63.5346 77.3908 63.9247C77.3908 67.0457 77.3908 70.2642 77.3908 73.3852C77.3908 74.6531 77.976 75.4333 78.9513 75.4333C79.9266 75.4333 80.6094 74.6531 80.6094 73.3852C80.6094 70.3617 80.6094 67.2407 80.6094 64.2173C80.6094 63.7296 80.6094 63.1444 80.6094 62.6568C80.8044 62.5593 80.9019 62.4617 81.097 62.4617C81.8773 63.242 82.56 64.1198 83.3402 64.9C84.218 65.7778 85.1933 65.9728 85.876 65.2901C86.5587 64.6074 86.4612 63.7296 85.5834 62.7543C83.9254 61.0963 82.1698 59.3407 80.4143 57.6827C79.439 56.8049 78.6587 56.8049 77.781 57.6827C75.9279 59.3407 74.2698 60.9988 72.6118 62.6568C71.6365 63.6321 71.539 64.5099 72.2217 65.1926C73.0019 65.9728 73.8797 65.7778 74.7575 64.9Z" fill="#5673D6"/>
<path d="M91.8254 75.8235C91.8254 74.7506 91.1427 74.0679 90.2649 74.0679C89.3871 74.0679 88.7044 74.7506 88.8019 75.8235C88.8995 77.0914 88.3143 77.2864 87.2415 77.2864C81.8773 77.2864 76.5131 77.2864 71.1489 77.2864C69.4908 77.2864 69.4908 77.2864 69.1982 75.5309C69.1007 74.6531 68.6131 74.0679 67.7353 74.0679C66.76 74.0679 66.2723 74.6531 66.1748 75.5309C66.0773 76.2136 66.1748 76.7988 66.1748 77.4815C66.1748 79.6272 66.955 80.4074 69.0032 80.4074C72.3192 80.4074 75.6353 80.4074 78.9513 80.4074C81.7797 80.4074 84.7056 80.3099 87.534 80.4074C92.118 80.6025 91.8254 79.042 91.8254 75.8235Z" fill="#5673D6"/>
</g>
<path d="M47.02 98.162H45.724V90.71H43.156V89.594H49.588V90.71H47.02V98.162ZM52.3048 91.574C53.1208 91.574 53.7288 91.754 54.1288 92.114C54.5288 92.466 54.7288 93.022 54.7288 93.782V98.162H53.8288L53.5768 97.262H53.5288C53.3448 97.494 53.1528 97.686 52.9528 97.838C52.7608 97.99 52.5368 98.102 52.2808 98.174C52.0328 98.246 51.7288 98.282 51.3688 98.282C50.9848 98.282 50.6368 98.214 50.3248 98.078C50.0208 97.934 49.7808 97.718 49.6048 97.43C49.4288 97.134 49.3408 96.766 49.3408 96.326C49.3408 95.67 49.5888 95.17 50.0848 94.826C50.5888 94.482 51.3528 94.294 52.3768 94.262L53.4808 94.226V93.866C53.4808 93.386 53.3728 93.05 53.1568 92.858C52.9408 92.666 52.6368 92.57 52.2448 92.57C51.9088 92.57 51.5888 92.618 51.2848 92.714C50.9808 92.81 50.6928 92.926 50.4208 93.062L50.0128 92.138C50.3168 91.978 50.6648 91.846 51.0568 91.742C51.4568 91.63 51.8728 91.574 52.3048 91.574ZM52.6048 95.078C51.8688 95.11 51.3568 95.234 51.0688 95.45C50.7888 95.658 50.6488 95.954 50.6488 96.338C50.6488 96.674 50.7488 96.918 50.9488 97.07C51.1568 97.222 51.4168 97.298 51.7288 97.298C52.2328 97.298 52.6488 97.158 52.9768 96.878C53.3048 96.598 53.4688 96.178 53.4688 95.618V95.054L52.6048 95.078ZM53.5288 89.414C53.5288 89.718 53.4408 89.958 53.2648 90.134C53.0888 90.302 52.8528 90.422 52.5568 90.494L52.4968 91.07H51.7408L51.6448 90.086C51.9328 90.038 52.1528 89.97 52.3048 89.882C52.4568 89.786 52.5328 89.65 52.5328 89.474C52.5328 89.306 52.4688 89.19 52.3408 89.126C52.2128 89.062 52.0528 89.03 51.8608 89.03C51.7408 89.03 51.6208 89.038 51.5008 89.054C51.3888 89.062 51.2928 89.078 51.2128 89.102V88.37C51.2928 88.338 51.3968 88.314 51.5248 88.298C51.6608 88.282 51.8128 88.274 51.9808 88.274C52.4768 88.274 52.8568 88.37 53.1208 88.562C53.3928 88.746 53.5288 89.03 53.5288 89.414ZM57.9594 91.694V98.162H56.6874V91.694H57.9594ZM57.3354 89.234C57.5274 89.234 57.6954 89.29 57.8394 89.402C57.9834 89.514 58.0554 89.702 58.0554 89.966C58.0554 90.222 57.9834 90.41 57.8394 90.53C57.6954 90.642 57.5274 90.698 57.3354 90.698C57.1274 90.698 56.9514 90.642 56.8074 90.53C56.6714 90.41 56.6034 90.222 56.6034 89.966C56.6034 89.702 56.6714 89.514 56.8074 89.402C56.9514 89.29 57.1274 89.234 57.3354 89.234ZM64.5261 98.162L62.0781 91.694H63.4221L64.7661 95.474C64.8221 95.634 64.8781 95.814 64.9341 96.014C64.9981 96.214 65.0541 96.406 65.1021 96.59C65.1501 96.774 65.1821 96.934 65.1981 97.07H65.2461C65.2701 96.934 65.3061 96.774 65.3541 96.59C65.4101 96.398 65.4701 96.206 65.5341 96.014C65.5981 95.814 65.6541 95.634 65.7021 95.474L67.0461 91.694H68.3901L65.9301 98.162H64.5261ZM70.6625 91.694V98.162H69.3905V91.694H70.6625ZM70.0385 89.234C70.2305 89.234 70.3985 89.29 70.5425 89.402C70.6865 89.514 70.7585 89.702 70.7585 89.966C70.7585 90.222 70.6865 90.41 70.5425 90.53C70.3985 90.642 70.2305 90.698 70.0385 90.698C69.8305 90.698 69.6545 90.642 69.5105 90.53C69.3745 90.41 69.3065 90.222 69.3065 89.966C69.3065 89.702 69.3745 89.514 69.5105 89.402C69.6545 89.29 69.8305 89.234 70.0385 89.234ZM74.8801 98.282C74.1041 98.282 73.4761 98.002 72.9961 97.442C72.5241 96.882 72.2881 96.05 72.2881 94.946C72.2881 93.834 72.5281 92.994 73.0081 92.426C73.4881 91.858 74.1201 91.574 74.9041 91.574C75.2321 91.574 75.5161 91.618 75.7561 91.706C76.0041 91.786 76.2161 91.898 76.3921 92.042C76.5761 92.186 76.7321 92.346 76.8601 92.522H76.9321C76.9161 92.41 76.8961 92.25 76.8721 92.042C76.8481 91.826 76.8361 91.634 76.8361 91.466V89.042H78.1081V98.162H77.1121L76.8961 97.298H76.8361C76.7161 97.482 76.5641 97.65 76.3801 97.802C76.2041 97.946 75.9921 98.062 75.7441 98.15C75.4961 98.238 75.2081 98.282 74.8801 98.282ZM75.1801 97.238C75.8041 97.238 76.2441 97.066 76.5001 96.722C76.7561 96.37 76.8841 95.846 76.8841 95.15V94.958C76.8841 94.198 76.7601 93.618 76.5121 93.218C76.2721 92.818 75.8241 92.618 75.1681 92.618C74.6481 92.618 74.2561 92.83 73.9921 93.254C73.7281 93.67 73.5961 94.242 73.5961 94.97C73.5961 95.698 73.7281 96.258 73.9921 96.65C74.2561 97.042 74.6521 97.238 75.1801 97.238ZM82.6455 91.574C83.2135 91.574 83.7015 91.694 84.1095 91.934C84.5175 92.166 84.8295 92.502 85.0455 92.942C85.2695 93.382 85.3815 93.902 85.3815 94.502V95.198H81.0375C81.0535 95.862 81.2255 96.37 81.5535 96.722C81.8895 97.074 82.3575 97.25 82.9575 97.25C83.3735 97.25 83.7415 97.214 84.0615 97.142C84.3895 97.062 84.7255 96.946 85.0695 96.794V97.85C84.7495 97.994 84.4215 98.102 84.0855 98.174C83.7575 98.246 83.3655 98.282 82.9095 98.282C82.2855 98.282 81.7335 98.158 81.2535 97.91C80.7735 97.662 80.3975 97.294 80.1255 96.806C79.8615 96.31 79.7295 95.702 79.7295 94.982C79.7295 94.254 79.8495 93.638 80.0895 93.134C80.3375 92.63 80.6775 92.246 81.1095 91.982C81.5495 91.71 82.0615 91.574 82.6455 91.574ZM82.6455 92.558C82.1895 92.558 81.8215 92.706 81.5415 93.002C81.2695 93.298 81.1095 93.718 81.0615 94.262H84.1095C84.1095 93.926 84.0575 93.63 83.9535 93.374C83.8495 93.118 83.6895 92.918 83.4735 92.774C83.2575 92.63 82.9815 92.558 82.6455 92.558ZM92.6687 94.922C92.6687 95.458 92.5967 95.934 92.4527 96.35C92.3087 96.766 92.1047 97.118 91.8407 97.406C91.5767 97.694 91.2567 97.914 90.8807 98.066C90.5047 98.21 90.0807 98.282 89.6087 98.282C89.1767 98.282 88.7767 98.21 88.4087 98.066C88.0407 97.914 87.7207 97.694 87.4487 97.406C87.1847 97.118 86.9767 96.766 86.8247 96.35C86.6727 95.934 86.5967 95.454 86.5967 94.91C86.5967 94.198 86.7167 93.594 86.9567 93.098C87.2047 92.602 87.5567 92.226 88.0127 91.97C88.4767 91.706 89.0207 91.574 89.6447 91.574C90.2367 91.574 90.7567 91.706 91.2047 91.97C91.6607 92.226 92.0167 92.602 92.2727 93.098C92.5367 93.594 92.6687 94.202 92.6687 94.922ZM87.9047 94.922C87.9047 95.402 87.9647 95.818 88.0847 96.17C88.2047 96.514 88.3927 96.778 88.6487 96.962C88.9047 97.146 89.2327 97.238 89.6327 97.238C90.0327 97.238 90.3607 97.146 90.6167 96.962C90.8727 96.778 91.0607 96.514 91.1807 96.17C91.3007 95.818 91.3607 95.402 91.3607 94.922C91.3607 94.426 91.2967 94.01 91.1687 93.674C91.0487 93.338 90.8607 93.082 90.6047 92.906C90.3567 92.722 90.0287 92.63 89.6207 92.63C89.0207 92.63 88.5847 92.83 88.3127 93.23C88.0407 93.63 87.9047 94.194 87.9047 94.922ZM98.6703 98.162H97.3983V89.042H98.6703V98.162ZM103.212 91.574C103.78 91.574 104.268 91.694 104.676 91.934C105.084 92.166 105.396 92.502 105.612 92.942C105.836 93.382 105.948 93.902 105.948 94.502V95.198H101.604C101.62 95.862 101.792 96.37 102.12 96.722C102.456 97.074 102.924 97.25 103.524 97.25C103.94 97.25 104.308 97.214 104.628 97.142C104.956 97.062 105.292 96.946 105.636 96.794V97.85C105.316 97.994 104.988 98.102 104.652 98.174C104.324 98.246 103.932 98.282 103.476 98.282C102.852 98.282 102.3 98.158 101.82 97.91C101.34 97.662 100.964 97.294 100.692 96.806C100.428 96.31 100.296 95.702 100.296 94.982C100.296 94.254 100.416 93.638 100.656 93.134C100.904 92.63 101.244 92.246 101.676 91.982C102.116 91.71 102.628 91.574 103.212 91.574ZM103.212 92.558C102.756 92.558 102.388 92.706 102.108 93.002C101.836 93.298 101.676 93.718 101.628 94.262H104.676C104.676 93.926 104.624 93.63 104.52 93.374C104.416 93.118 104.256 92.918 104.04 92.774C103.824 92.63 103.548 92.558 103.212 92.558ZM103.812 88.97C103.916 89.146 104.056 89.346 104.232 89.57C104.416 89.786 104.604 90.002 104.796 90.218C104.996 90.426 105.168 90.602 105.312 90.746V90.89H104.436C104.228 90.762 104.008 90.606 103.776 90.422C103.552 90.238 103.332 90.038 103.116 89.822C102.9 90.038 102.68 90.238 102.456 90.422C102.24 90.598 102.028 90.754 101.82 90.89H100.956V90.746C101.108 90.594 101.276 90.414 101.46 90.206C101.652 89.998 101.836 89.786 102.012 89.57C102.188 89.346 102.332 89.146 102.444 88.97H103.812ZM110.811 91.574C111.563 91.574 112.139 91.762 112.539 92.138C112.939 92.514 113.139 93.118 113.139 93.95V98.162H111.879V94.13C111.879 93.626 111.771 93.25 111.555 93.002C111.347 92.746 111.011 92.618 110.547 92.618C109.891 92.618 109.435 92.814 109.179 93.206C108.931 93.598 108.807 94.162 108.807 94.898V98.162H107.535V91.694H108.543L108.723 92.558H108.795C108.939 92.334 109.115 92.15 109.323 92.006C109.531 91.862 109.763 91.754 110.019 91.682C110.275 91.61 110.539 91.574 110.811 91.574Z" fill="#5673D6"/>
<defs>
<clipPath id="clip0_1_11">
<rect width="25.6506" height="23.4074" fill="white" transform="translate(66.1748 57)"/>
</clipPath>
</defs>
</svg>
